<?xml version="1.0" encoding="UTF-8" standalone="no"?>
<svg
   xmlns:dc="http://purl.org/dc/elements/1.1/"
   xmlns:cc="http://creativecommons.org/ns#"
   xmlns:rdf="http://www.w3.org/1999/02/22-rdf-syntax-ns#"
   xmlns:svg="http://www.w3.org/2000/svg"
   xmlns="http://www.w3.org/2000/svg"
   xmlns:xlink="http://www.w3.org/1999/xlink"
   id="svg252"
   version="1.1"
   viewBox="0 0 73.863937 37.711437"
   height="37.711437mm"
   width="73.863937mm">
  <defs
     id="defs246">
    <radialGradient
       gradientUnits="userSpaceOnUse"
       gradientTransform="matrix(1,0,0,0.50951643,-37.598007,-32.873309)"
       r="36.931973"
       fy="145.17406"
       fx="90.292091"
       cy="145.17406"
       cx="90.292091"
       id="radialGradient938"
       xlink:href="#linearGradient936" />
    <linearGradient
       id="linearGradient936">
      <stop
         id="stop932"
         offset="0"
         style="stop-color:#970f93;stop-opacity:1;" />
      <stop
         id="stop934"
         offset="1"
         style="stop-color:#970f93;stop-opacity:0;" />
    </linearGradient>
    <radialGradient
       gradientUnits="userSpaceOnUse"
       gradientTransform="matrix(1,0,0,0.33330168,-37.598007,-15.205892)"
       r="21.070894"
       fy="133.30304"
       fx="106.13275"
       cy="133.30304"
       cx="106.13275"
       id="radialGradient946"
       xlink:href="#linearGradient936" />
    <radialGradient
       gradientUnits="userSpaceOnUse"
       gradientTransform="matrix(1,0,0,0.32676049,-37.598007,-4.1257101)"
       r="13.382667"
       fy="148.46587"
       fx="88.252495"
       cy="148.46587"
       cx="88.252495"
       id="radialGradient954"
       xlink:href="#linearGradient936" />
    <radialGradient
       gradientUnits="userSpaceOnUse"
       gradientTransform="matrix(1,0,0,0.5105619,-37.598007,-33.112627)"
       r="35.67635"
       fy="144.99521"
       fx="90.266052"
       cy="144.99521"
       cx="90.266052"
       id="radialGradient962"
       xlink:href="#linearGradient960" />
    <linearGradient
       id="linearGradient960">
      <stop
         id="stop956"
         offset="0"
         style="stop-color:#6500c7;stop-opacity:1;" />
      <stop
         id="stop958"
         offset="1"
         style="stop-color:#6500c7;stop-opacity:0;" />
    </linearGradient>
    <radialGradient
       gradientUnits="userSpaceOnUse"
       gradientTransform="matrix(1,0,0,0.51122193,-37.598007,-33.257228)"
       r="35.09837"
       fy="144.89516"
       fx="90.219734"
       cy="144.89516"
       cx="90.219734"
       id="radialGradient970"
       xlink:href="#linearGradient968" />
    <linearGradient
       id="linearGradient968">
      <stop
         id="stop964"
         offset="0"
         style="stop-color:#e5e654;stop-opacity:1;" />
      <stop
         id="stop966"
         offset="1"
         style="stop-color:#e5e654;stop-opacity:0;" />
    </linearGradient>
  </defs>
  <metadata
     id="metadata249">
    <rdf:RDF>
      <cc:Work
         rdf:about="">
        <dc:format>image/svg+xml</dc:format>
        <dc:type
           rdf:resource="http://purl.org/dc/dcmitype/StillImage" />
        <dc:title></dc:title>
      </cc:Work>
    </rdf:RDF>
  </metadata>
  <g
     transform="translate(-15.762118,-22.201272)"
     id="layer1">
    <path
       style="fill:url(#radialGradient938);fill-opacity:1;stroke:#000000;stroke-width:0.225433px;stroke-linecap:butt;stroke-linejoin:miter;stroke-opacity:1"
       d="m 47.522949,22.279378 -0.192156,13.87098 H 16.191809 l 17.79939,10.028333 -16.642801,13.6269 72.242583,-23.655233"
       id="path905" />
    <path
       style="fill:url(#radialGradient946);fill-opacity:1;stroke:#000000;stroke-width:0.195893px;stroke-linecap:butt;stroke-linejoin:miter;stroke-opacity:1"
       d="m 47.522946,22.279378 c 9.900365,7.4915 25.091155,11.30252 42.068035,13.87098"
       id="path907" />
    <path
       style="fill:url(#radialGradient954);fill-opacity:1;stroke:#000000;stroke-width:0.262728px;stroke-linecap:butt;stroke-linejoin:miter;stroke-opacity:1"
       d="M 63.994131,40.145508 H 37.317213 l 8.743863,3.219703 -6.562194,5.27067 24.495249,-8.490373"
       id="path909" />
    <path
       style="fill:url(#radialGradient962);fill-opacity:1;stroke-width:0.188988"
       d="m 18.799388,58.895141 c 3.190005,-2.48296 15.443793,-12.72389 15.341812,-12.8217 -0.07731,-0.0742 -3.967581,-2.28905 -8.645035,-4.921983 l -8.504465,-4.78714 15.230675,-0.0484 15.230674,-0.0483 0.124608,-4.28167 c 0.06853,-2.35491 0.124608,-5.4073 0.124608,-6.7831 v -2.50143 l 1.488369,0.99622 c 7.81641,5.23183 19.046667,8.98985 35.269807,11.80249 2.28677,0.39645 4.03018,0.77332 3.87427,0.83747 -0.54129,0.22272 -69.587273,22.799763 -69.708844,22.793793 -0.06724,-0.003 0.01085,-0.10962 0.173521,-0.23624 z m 33.202327,-14.35421 c 7.389649,-2.560823 12.142466,-4.300823 12.142486,-4.445353 3e-5,-0.30385 -26.807163,-0.25656 -26.883554,0.0474 -0.02598,0.10335 1.801768,0.86875 4.061646,1.7009 2.259872,0.832143 4.109593,1.565133 4.11049,1.628863 0.0011,0.0637 -1.359088,1.2075 -3.022185,2.54171 -1.663093,1.33421 -3.023808,2.49395 -3.023808,2.57721 0,0.0833 0.106306,0.15266 0.236235,0.15424 0.129929,0.002 5.70034,-1.89066 12.37869,-4.20498 z"
       id="path911" />
    <path
       style="fill:url(#radialGradient970);fill-opacity:1;stroke-width:0.188988"
       d="m 23.26287,55.376081 c 6.554675,-5.37854 10.737759,-8.98577 10.737759,-9.25959 0,-0.13923 -3.707387,-2.3479 -8.238635,-4.908163 l -8.238635,-4.65502 14.884809,-0.0945 c 8.186646,-0.052 14.950324,-0.16004 15.030395,-0.24017 0.08007,-0.0801 0.193421,-3.1156 0.251891,-6.74551 l 0.106304,-6.59983 1.889882,1.23022 c 2.230192,1.45175 6.901826,3.81215 9.827382,4.965399 6.216659,2.450601 13.339819,4.347451 23.151049,6.164951 2.5466,0.47175 4.78463,0.92071 4.97339,0.99769 0.37944,0.15474 0.73086,0.0367 -30.959262,10.400173 -29.559139,9.6666 -37.138678,12.12768 -37.350273,12.12768 -0.104079,0 1.666195,-1.5225 3.933944,-3.38333 z m 21.335018,-8.22246 c 8.319246,-2.80692 15.726645,-5.419433 18.303523,-6.455463 1.04039,-0.41828 1.23402,-0.55527 0.94494,-0.66854 -0.45716,-0.17912 -24.405822,-0.18294 -25.687986,-0.004 l -0.94494,0.13181 0.755954,0.39286 c 0.415775,0.21608 2.159188,0.92505 3.874254,1.5755 1.715069,0.650453 3.184584,1.242833 3.265588,1.316403 0.08101,0.0736 -1.1734,1.21702 -2.787573,2.54099 -1.614172,1.32398 -2.934858,2.4866 -2.934858,2.5836 0,0.31606 0.439488,0.19689 5.211098,-1.41306 z"
       id="path913" />
    <text
       transform="scale(0.9791193,1.021326)"
       id="text930"
       y="69.096382"
       x="16.655195"
       style="font-style:normal;font-weight:normal;font-size:9.56453px;line-height:1.25;font-family:sans-serif;letter-spacing:0px;word-spacing:0px;fill:#970f93;fill-opacity:1;stroke:none;stroke-width:0.239114"
       xml:space="preserve"><tspan
         style="fill:#970f93;fill-opacity:1;stroke-width:0.239114"
         y="69.096382"
         x="16.655195"
         id="tspan928">Deals Accretion</tspan></text>
  </g>
</svg>
